<?xml version="1.0" encoding="utf-8"?>
<svg version="1.0" width="579.000000pt" height="400.000000pt" viewBox="0 0 579.000000 400.000000" preserveAspectRatio="xMidYMid meet" xmlns="http://www.w3.org/2000/svg">
  <defs/>
  <g transform="matrix(0.114962, 0, 0, -0.106542, -60.235322, 417.043097)" fill="#000000" stroke="none" style="">
    <path d="M2882 3854 c-29 -20 -28 -45 3 -74 25 -23 25 -25 25 -195 l0 -171 55&#10;-54 55 -54 0 -312 0 -312 -47 5 c-27 3 -54 6 -60 8 -10 3 -13 62 -13 247 l0&#10;244 -75 74 -75 74 0 148 c0 101 4 155 13 168 10 17 9 22 -3 30 -8 5 -19 10&#10;-23 10 -15 0 -20 -33 -8 -52 8 -13 11 -67 10 -165 l-1 -146 76 -76 76 -76 0&#10;-153 c0 -83 -4 -152 -8 -152 -14 0 -70 64 -74 85 -4 22 -35 32 -51 16 -13 -13&#10;8 -41 32 -41 9 0 36 -20 59 -43 l43 -44 -3 -74 -3 -74 -34 -3 c-31 -3 -42 4&#10;-113 75 l-78 78 0 170 c0 159 1 171 20 183 20 12 26 47 12 68 -15 24 -50 26&#10;-71 5 -27 -27 -26 -33 4 -69 24 -29 25 -33 25 -198 l0 -169 72 -72 c49 -49 67&#10;-74 57 -77 -8 -2 -37 -11 -65 -19 l-52 -14 -56 55 -56 55 0 326 c0 230 3 330&#10;11 338 16 16 3 43 -21 43 -21 0 -29 -33 -10 -45 11 -7 14 -175 3 -175 -4 0&#10;-40 33 -80 72 l-73 72 0 105 c0 94 2 107 22 128 18 19 20 28 12 51 -8 22 -15&#10;27 -44 27 -29 0 -36 -5 -45 -29 -8 -24 -6 -31 12 -46 20 -16 22 -27 24 -126&#10;l1 -109 89 -89 89 -90 0 -123 c0 -68 -4 -123 -9 -123 -5 0 -43 34 -85 75 -53&#10;52 -76 82 -76 99 0 13 -7 29 -16 37 -23 19 -49 -1 -49 -37 0 -25 4 -29 30 -32&#10;22 -3 53 -26 118 -90 l87 -87 0 -72 c0 -40 -4 -73 -8 -73 -4 0 -85 76 -180&#10;169 l-172 169 0 129 0 128 -90 90 c-49 49 -90 98 -92 109 -2 13 -12 22 -25 24&#10;-32 5 -32 -35 0 -47 13 -5 63 -49 110 -97 l87 -89 0 -125 0 -125 235 -235&#10;c129 -129 235 -237 235 -241 0 -3 -23 -16 -50 -28 l-50 -23 -166 166 -166 166&#10;-87 0 -86 0 -115 115 -115 115 -197 0 c-182 0 -198 1 -210 19 -27 39 -88 26&#10;-88 -18 0 -51 50 -69 85 -31 17 19 31 20 212 20 l194 0 60 -57 c32 -32 59 -63&#10;59 -70 0 -10 -36 -13 -153 -13 l-153 0 -38 -39 c-23 -24 -44 -37 -55 -34 -22&#10;6 -53 -29 -45 -50 15 -40 74 -30 74 12 0 18 13 39 38 64 l38 37 162 0 162 0&#10;44 -40 43 -40 84 0 84 0 163 -163 164 -164 -49 -36 -48 -36 -100 100 -100 99&#10;-105 0 -106 0 -62 63 c-34 34 -62 70 -62 79 0 17 -26 32 -41 22 -18 -11 -9&#10;-42 14 -48 12 -3 47 -30 77 -61 l54 -55 -130 0 -129 0 -80 -80 -80 -80 -115 0&#10;-115 0 -92 93 c-50 50 -93 101 -95 112 -4 23 -37 33 -48 14 -12 -18 0 -39 22&#10;-39 18 0 188 -157 188 -173 0 -4 -117 -7 -260 -7 -249 0 -260 1 -270 20 -12&#10;23 -59 27 -78 8 -34 -34 14 -102 56 -79 11 6 22 17 26 26 5 13 50 15 346 15&#10;187 0 340 -4 340 -8 0 -4 -17 -25 -38 -45 l-39 -38 -180 0 c-112 -1 -188 3&#10;-201 10 -15 8 -23 7 -33 -5 -17 -21 14 -55 33 -36 8 8 65 12 194 12 l182 0 55&#10;55 c47 48 59 55 93 55 36 0 47 7 119 80 l80 80 235 0 235 0 43 -39 c35 -32 39&#10;-40 25 -45 -9 -4 -106 -6 -215 -6 -182 1 -199 3 -208 20 -21 39 -82 33 -93 -9&#10;-12 -49 59 -83 85 -41 12 19 24 20 239 20 l227 0 28 -28 c16 -15 38 -38 48&#10;-50 l20 -23 -39 -39 -39 -40 -258 0 -258 0 -51 -50 -50 -50 -276 0 -276 0 -23&#10;25 c-13 14 -30 25 -38 25 -37 0 -61 -61 -34 -88 18 -18 56 -14 75 8 17 19 30&#10;20 297 20 l280 0 51 50 51 50 251 -2 251 -3 -27 -40 -27 -40 -134 -3 -134 -3&#10;-72 -70 -73 -70 -608 1 c-596 1 -608 2 -630 22 -37 35 -86 1 -63 -43 13 -23&#10;43 -25 60 -4 11 13 93 15 631 15 l618 0 71 70 71 70 128 0 129 0 -22 -52 c-12&#10;-29 -25 -58 -29 -65 -8 -13 -97 -12 -154 2 -29 7 -33 5 -33 -13 0 -26 18 -38&#10;33 -23 6 6 42 11 80 11 l68 0 -7 -47 c-3 -27 -8 -49 -9 -51 -1 -2 -198 -3&#10;-437 -2 l-434 0 -49 -50 -49 -50 -181 0 c-168 0 -182 1 -198 20 -19 22 -57 26&#10;-75 8 -20 -20 -14 -56 13 -74 23 -15 27 -15 50 0 14 9 25 21 25 26 0 6 71 10&#10;185 10 l185 0 43 45 43 44 294 1 c162 1 304 1 315 0 15 0 -3 -23 -70 -90 l-90&#10;-90 -296 0 c-251 0 -298 2 -309 15 -27 32 -78 6 -65 -34 9 -30 41 -36 71 -12&#10;26 20 39 21 316 21 l290 0 96 95 95 95 76 0 75 0 -59 -60 c-32 -32 -68 -60&#10;-79 -62 -13 -2 -21 -10 -21 -23 0 -29 33 -31 44 -3 14 34 143 154 166 153 17&#10;0 20 -8 23 -51 l3 -50 -103 -102 -103 -102 -295 0 -296 0 -54 -55 -55 -56&#10;-175 4 c-96 2 -184 5 -195 8 -13 3 -20 -2 -23 -15 -6 -26 13 -42 32 -27 15 13&#10;311 25 330 14 4 -3 -52 -66 -125 -139 -107 -107 -139 -134 -161 -134 -35 0&#10;-50 -42 -24 -68 21 -22 49 -6 56 32 3 17 72 93 204 226 l199 199 296 1 296 0&#10;96 96 c79 79 98 93 102 78 3 -11 11 -48 18 -83 l12 -63 -115 -114 -115 -114&#10;-226 0 -226 0 -25 25 c-19 19 -30 23 -47 16 -34 -12 -45 -35 -31 -65 15 -33&#10;65 -36 84 -6 12 19 24 20 243 20 l230 0 110 110 c60 60 114 110 120 110 5 0&#10;21 -25 34 -55 l23 -54 -172 -171 -171 -170 -52 0 c-52 0 -53 0 -137 -84 -63&#10;-65 -91 -86 -114 -88 -25 -2 -32 -8 -34 -30 -2 -18 3 -30 16 -37 25 -13 52 6&#10;56 40 2 17 31 54 86 108 82 80 83 81 134 81 l51 0 171 171 171 170 43 -57 42&#10;-56 -188 -189 c-104 -104 -196 -189 -206 -189 -21 0 -30 -13 -22 -34 12 -31&#10;50 -18 46 15 -1 4 85 93 190 198 l191 190 46 -40 c25 -23 70 -55 99 -72 l53&#10;-30 -32 -33 c-33 -34 -33 -34 -129 -34 l-96 0 -49 -50 c-27 -27 -58 -50 -68&#10;-50 -35 0 -57 -19 -57 -50 0 -28 22 -50 49 -50 24 0 51 40 45 66 -6 21 1 34&#10;42 75 l48 49 71 0 c40 0 75 -3 79 -7 4 -4 -42 -56 -101 -115 l-108 -108 -119&#10;0 -120 0 -260 -260 c-213 -213 -265 -260 -287 -260 -56 0 -79 -57 -34 -86 23&#10;-15 27 -15 51 1 21 13 25 22 21 44 -5 25 17 51 257 290 l263 262 62 -3 63 -3&#10;1 -68 1 -68 -125 -125 c-68 -69 -135 -130 -149 -137 -14 -7 -25 -19 -25 -27 0&#10;-24 49 -19 53 6 2 11 61 78 132 149 l130 130 0 72 0 73 47 0 48 0 155 155 155&#10;155 47 -18 c26 -10 50 -21 53 -24 4 -4 -41 -54 -99 -113 l-106 -106 0 -82 0&#10;-82 -98 -98 c-75 -74 -104 -97 -124 -97 -30 0 -48 -23 -41 -51 11 -41 73 -28&#10;73 16 0 15 17 41 48 72 l47 48 3 -48 c2 -27 -2 -55 -8 -62 -15 -18 -5 -35 20&#10;-35 24 0 30 20 14 46 -9 12 -12 40 -10 71 3 44 9 56 45 91 l41 40 0 84 0 83&#10;109 109 c84 84 113 107 131 104 22 -3 23 -7 22 -97 l-1 -94 -47 -48 -47 -48&#10;-1 -195 c-2 -189 -3 -196 -25 -217 -28 -27 -24 -59 11 -78 24 -14 28 -14 47 3&#10;26 24 27 51 1 73 -18 16 -20 30 -20 137 l0 120 39 -38 c26 -26 41 -50 43 -70&#10;2 -25 8 -32 30 -34 18 -2 30 3 37 16 13 24 -7 54 -37 56 -11 0 -41 20 -66 43&#10;l-46 43 0 70 0 71 48 46 47 46 3 94 4 94 46 -3 47 -3 3 -204 2 -205 69 -70&#10;c67 -70 68 -72 70 -129 l2 -59 -81 -82 c-79 -82 -80 -83 -80 -134 0 -29 -6&#10;-61 -12 -72 -11 -17 -10 -22 2 -30 8 -5 19 -10 23 -10 15 0 20 33 9 51 -7 10&#10;-12 39 -12 63 0 41 4 48 67 110 36 36 69 66 73 66 4 0 8 -66 9 -146 2 -139 1&#10;-148 -20 -170 -19 -20 -21 -27 -11 -49 6 -14 20 -25 30 -25 38 0 56 46 27 70&#10;-13 10 -15 51 -15 250 l0 237 -70 67 -70 67 2 202 3 202 48 3 47 3 1 -143 c1&#10;-79 0 -153 -1 -166 -1 -16 19 -44 69 -96 l71 -73 0 -184 c0 -173 -1 -185 -20&#10;-197 -25 -16 -26 -46 0 -72 21 -21 46 -18 68 8 18 23 15 38 -13 68 -25 27 -25&#10;29 -25 208 l0 182 -65 64 -65 64 0 172 0 171 63 18 c34 9 70 20 80 22 15 5 17&#10;-2 17 -54 0 -56 -2 -61 -40 -98 -39 -38 -41 -42 -39 -97 1 -34 -3 -63 -10 -72&#10;-16 -19 -6 -36 19 -36 25 0 35 17 20 35 -6 7 -12 39 -14 71 -2 48 2 62 22 86&#10;13 15 28 28 33 28 5 0 9 -44 9 -98 l0 -98 70 -69 70 -70 -1 -74 -2 -73 172&#10;-172 c95 -95 171 -179 171 -189 0 -13 6 -17 23 -15 30 4 28 30 -3 45 -14 7&#10;-98 84 -187 172 l-163 160 0 77 0 77 -65 66 -66 66 0 155 c0 85 0 164 0 175 1&#10;13 18 30 46 48 25 15 48 27 50 27 3 0 5 -52 5 -115 l0 -115 130 -128 130 -129&#10;0 -70 c0 -40 -5 -74 -12 -81 -10 -10 -9 -16 4 -29 14 -14 20 -14 33 -3 14 12&#10;14 15 -1 38 -11 17 -15 40 -12 83 l4 58 -133 133 -133 133 0 118 0 119 48 43&#10;c26 25 50 44 55 45 4 0 7 -42 7 -93 l0 -92 170 -170 170 -170 0 -84 0 -84 77&#10;-79 c43 -43 78 -86 78 -96 0 -10 9 -18 23 -20 17 -3 22 2 22 18 0 11 -8 23&#10;-17 27 -10 3 -53 40 -95 82 l-78 76 0 82 0 83 -170 169 -170 168 0 109 c1 106&#10;2 110 30 144 l30 34 70 -69 70 -69 0 -86 0 -85 240 -240 c132 -132 238 -245&#10;236 -252 -3 -7 3 -22 14 -35 15 -19 22 -21 37 -12 37 23 23 74 -21 74 -14 0&#10;-97 76 -259 238 l-237 237 0 75 0 75 183 -183 182 -182 130 0 130 0 164 -164&#10;c96 -96 161 -168 157 -175 -11 -17 3 -50 25 -62 16 -8 26 -7 45 6 43 28 21 85&#10;-34 85 -21 0 -61 34 -187 160 l-161 160 -130 0 -129 0 -98 98 c-53 53 -97 101&#10;-97 105 0 4 37 7 82 7 l82 0 62 -61 62 -62 142 2 141 2 69 -67 c38 -36 70 -76&#10;72 -88 2 -13 10 -21 23 -21 29 0 31 33 3 44 -13 5 -54 39 -92 75 l-69 66 -146&#10;0 -147 0 -59 60 -59 60 -96 0 -95 0 -100 100 -100 100 97 0 96 0 42 -42 c23&#10;-24 46 -53 51 -65 12 -32 52 -32 47 -1 -2 13 -11 24 -23 26 -11 2 -41 24 -67&#10;49 l-46 45 -101 -1 -101 -2 -42 40 -43 40 185 1 185 0 115 -115 115 -115 219&#10;0 219 0 23 -25 c13 -14 30 -25 38 -25 22 0 46 28 46 54 0 46 -52 62 -85 26&#10;-17 -19 -31 -20 -234 -20 l-216 0 -115 115 -115 115 -193 0 c-107 0 -192 3&#10;-190 8 2 4 17 40 33 79 l30 73 41 0 c35 0 47 -6 86 -45 l46 -45 199 0 200 0&#10;46 -49 c29 -30 47 -59 47 -73 0 -46 50 -66 70 -28 16 29 -4 60 -38 60 -18 0&#10;-42 15 -78 51 l-51 51 -191 -2 -191 -1 -35 32 c-20 17 -33 35 -30 40 3 5 210&#10;9 481 9 l475 0 74 -72 c41 -40 77 -82 80 -94 7 -28 29 -37 43 -20 15 18 3 46&#10;-20 46 -19 0 -139 111 -139 129 0 14 197 15 205 1 17 -27 58 -3 48 28 -5 14&#10;-43 16 -43 2 0 -6 -110 -10 -310 -10 -317 0 -350 4 -274 36 24 10 34 20 32 32&#10;-5 24 -42 22 -46 -3 -2 -11 -13 -30 -25 -42 -20 -23 -21 -23 -360 -23 l-339 0&#10;6 32 c3 18 9 56 13 85 l6 53 254 0 c245 0 255 -1 283 -22 17 -12 30 -29 30&#10;-38 0 -22 19 -40 36 -33 19 7 18 43 0 43 -8 0 -28 11 -43 25 l-28 24 99 1 c95&#10;0 101 -1 128 -27 15 -15 28 -35 28 -44 0 -26 19 -34 38 -16 13 13 13 19 2 31&#10;-7 9 -18 16 -25 16 -6 0 -20 9 -30 20 -18 20 -17 20 524 20 477 0 544 -2 558&#10;-15 19 -19 42 -16 57 8 22 35 -27 73 -56 43 -9 -8 -26 -16 -39 -17 -13 -1&#10;-427 -1 -920 -1 l-896 2 -7 58 c-4 31 -13 82 -22 112 -31 109 -34 100 32 100&#10;l58 0 87 -90 88 -90 318 0 c307 0 319 -1 331 -20 16 -27 57 -26 76 2 20 29 20&#10;34 -4 58 -26 26 -44 25 -70 -2 -20 -22 -26 -22 -330 -26 l-310 -4 -80 78 c-44&#10;42 -80 81 -80 86 0 12 168 10 175 -2 3 -6 15 -10 26 -10 14 0 19 7 19 25 0 18&#10;-5 25 -19 25 -11 0 -23 -4 -26 -10 -4 -6 -71 -10 -169 -10 l-162 0 -17 35 c-9&#10;20 -17 40 -17 45 0 6 91 10 237 10 l237 0 90 -89 91 -89 399 -1 c220 0 419 -3&#10;443 -7 39 -6 43 -4 43 14 0 23 -28 38 -44 22 -6 -6 -115 -10 -305 -10 l-295 0&#10;29 29 c15 17 37 31 49 33 13 2 21 10 21 23 0 26 -33 32 -41 8 -4 -10 -23 -35&#10;-42 -55 l-36 -38 -111 0 -112 0 -84 85 -84 85 -252 0 -251 0 -31 38 c-29 38&#10;-30 39 -10 55 17 15 57 17 386 17 l366 0 56 -54 57 -53 433 -1 c424 -1 434 -1&#10;453 -21 23 -26 50 -27 71 -3 22 24 21 45 -1 65 -25 22 -48 21 -72 -3 -20 -20&#10;-31 -20 -285 -18 l-265 3 79 80 c49 48 91 82 107 85 53 10 58 70 6 78 -23 3&#10;-48 -31 -36 -49 4 -6 -35 -53 -87 -105 l-94 -94 -155 0 -156 0 -49 50 -49 50&#10;-356 0 c-196 0 -360 3 -364 7 -3 4 10 24 31 45 l37 38 115 0 115 0 37 36 38&#10;37 195 -1 195 -1 92 90 c51 49 101 89 111 89 14 0 19 6 16 23 -4 29 -41 31&#10;-46 2 -2 -11 -40 -57 -85 -102 l-82 -83 -200 0 -200 -1 -40 -39 -39 -40 -93 0&#10;c-50 0 -94 4 -97 8 -3 5 42 54 99 111 l103 102 143 0 144 -1 155 155 155 154&#10;203 2 c174 1 205 -1 221 -15 38 -35 99 0 82 47 -13 35 -48 40 -77 12 -25 -25&#10;-25 -25 -227 -25 l-202 0 -156 -156 -157 -156 -76 -2 c-46 0 -76 3 -76 9 0 17&#10;224 235 242 235 25 0 33 20 15 38 -13 13 -19 13 -31 2 -9 -7 -16 -20 -16 -29&#10;0 -9 -55 -71 -122 -138 l-123 -121 -47 2 -46 3 -184 -184 c-100 -100 -187&#10;-183 -193 -183 -12 1 -85 67 -85 78 0 4 47 55 105 112 l105 103 0 86 0 86 144&#10;144 c81 81 149 141 155 137 18 -12 52 13 49 36 -8 52 -72 47 -74 -5 -1 -18&#10;-21 -47 -65 -92 -35 -36 -67 -65 -71 -65 -4 0 -8 28 -8 63 l0 62 183 183 c100&#10;100 190 182 199 182 26 0 41 35 23 50 -12 10 -18 10 -30 0 -8 -7 -15 -18 -15&#10;-25 0 -8 -83 -97 -185 -199 l-185 -186 0 -76 0 -76 -64 -64 -65 -64 -2 -88 -1&#10;-87 -102 -102 c-55 -57 -107 -103 -114 -103 -17 0 -62 30 -62 42 0 19 171 178&#10;191 178 15 0 20 6 17 23 -4 29 -41 31 -46 2 -4 -20 -70 -95 -84 -95 -4 0 -8&#10;60 -8 133 l0 132 95 95 c85 85 98 94 128 92 20 -2 39 4 46 12 17 21 10 56 -15&#10;73 -18 12 -24 11 -47 -8 -19 -15 -25 -27 -22 -42 5 -18 -14 -42 -95 -122&#10;l-100 -100 0 -145 0 -146 -40 -39 -39 -38 -38 14 -38 15 -3 214 -2 214 131&#10;132 132 132 -2 76 -2 76 61 64 c34 35 72 67 86 70 26 7 31 25 13 43 -15 15&#10;-39 5 -39 -16 0 -9 -29 -46 -65 -81 l-65 -64 0 -82 0 -82 -130 -129 -130 -128&#10;0 -213 0 -214 -37 7 c-21 3 -44 14 -50 23 -10 11 -13 78 -13 250 l0 234 72 74&#10;c55 57 78 74 99 74 49 0 63 61 18 75 -26 9 -49 -11 -49 -42 0 -27 -115 -148&#10;-131 -138 -5 4 -9 27 -9 53 0 44 -4 51 -55 102 l-55 54 0 173 c0 162 1 173 20&#10;183 27 14 27 65 1 80 -26 13 -33 13 -59 -6z m66 -30 c4 -27 -21 -47 -48 -39&#10;-20 6 -28 44 -13 59 15 15 58 1 61 -20z m-548 -139 c18 -21 3 -55 -24 -55 -33&#10;0 -50 23 -36 49 12 24 42 27 60 6z m287 -431 c9 -24 -10 -49 -38 -49 -24 0&#10;-36 23 -25 51 7 19 55 18 63 -2z m888 -15 c4 -5 4 -21 1 -35 -5 -20 -12 -25&#10;-34 -22 -27 3 -39 25 -28 54 6 16 52 19 61 3z m-2190 -84 c0 -27 -3 -30 -30&#10;-30 -21 0 -31 5 -33 18 -6 33 6 49 35 45 24 -3 28 -8 28 -33z m3480 0 c0 -27&#10;-3 -30 -30 -30 -21 0 -31 5 -33 18 -6 33 6 49 35 45 24 -3 28 -8 28 -33z&#10;m-1827 -491 c126 -25 232 -84 334 -184 74 -73 93 -99 132 -180 100 -209 100&#10;-397 0 -600 -39 -80 -61 -109 -133 -180 -63 -63 -106 -95 -161 -123 -414 -206&#10;-891 24 -984 475 -20 97 -20 144 0 249 29 153 93 269 211 379 161 150 378 210&#10;601 164z m-1181 -30 c8 -22 -9 -48 -35 -52 -16 -2 -23 3 -28 22 -3 14 -3 30 1&#10;35 10 17 55 13 62 -5z m-1067 -65 c23 -41 -38 -68 -63 -27 -8 12 -7 21 2 32&#10;19 22 48 20 61 -5z m4454 -145 c9 -8 16 -19 16 -24 0 -11 -29 -40 -40 -40 -13&#10;0 -40 30 -40 45 0 13 26 34 42 35 4 0 14 -7 22 -16z m-4100 -76 c27 -39 -18&#10;-80 -52 -46 -17 17 -15 45 6 57 24 15 29 14 46 -11z m3397 -214 c21 -19 14&#10;-51 -13 -59 -40 -13 -67 43 -30 64 22 14 23 14 43 -5z m-3687 -146 c8 -13 6&#10;-22 -7 -36 -21 -23 -54 -18 -62 10 -14 42 45 64 69 26z m667 -424 c17 -21 0&#10;-49 -31 -49 -31 0 -48 28 -31 49 8 9 21 16 31 16 10 0 23 -7 31 -16z m3107&#10;-126 c30 -30 -4 -77 -41 -57 -29 17 -15 69 18 69 6 0 16 -5 23 -12z m-2400&#10;-250 c30 -30 0 -78 -37 -58 -32 17 -21 70 14 70 6 0 16 -5 23 -12z m2432 -407&#10;c15 -29 2 -53 -28 -49 -33 4 -50 31 -33 52 18 22 48 20 61 -3z m-1950 -176&#10;c14 -17 5 -51 -15 -59 -35 -13 -63 21 -45 55 13 23 43 25 60 4z m-1190 -80&#10;c19 -23 3 -57 -27 -53 -34 4 -51 31 -34 52 17 20 45 21 61 1z m1661 -91 c17&#10;-21 0 -49 -31 -49 -31 0 -48 28 -31 49 8 9 21 16 31 16 10 0 23 -7 31 -16z"/>
  </g>
</svg>