<svg xmlns="http://www.w3.org/2000/svg" width="1123" height="794" stroke="none" stroke-linecap="round" stroke-linejoin="round" fill="#facc15" fill-rule="nonzero"><path d="M546.5985.7519c-1.9609.5712-4.2498 2.2837-5.2293 3.6537-1.4702 2.3978-3.1045 2.6261-21.0796 3.3114-73.209 2.7401-143.1475 15.8708-212.1068 39.6201-86.4454 29.8006-160.3056 74.673-214.7221 130.3924-4.2479 4.5671-6.0463 5.4803-10.1303 5.4803-5.884 0-14.5444 5.3668-14.5444 9.1345 0 5.9374 6.2089 10.1617 15.0333 10.2758 4.5763 0 6.8635-.7989 10.1321-3.5394 4.7387-3.9962 5.2294-6.0514 1.9608-10.2759-2.1249-2.9687-1.7984-3.5396 8.3337-13.7015 25.6562-25.576 63.7296-54.6917 97.7196-74.5591 85.7908-50.1244 186.6146-79.4683 299.6939-87.4611 9.315-.5706 21.4081-1.1416 26.9639-1.1416 9.1509 0 10.4585.3427 14.3802 3.4253 8.6602 6.965 24.5106 2.8547 24.5106-6.2798 0-7.5356-10.6211-11.8747-20.9156-8.3351zm49.0223 20.2095l-17.9751 11.4182-32.6822.5708c-52.1273.9134-97.5552 5.9371-143.8004 15.8708-22.5516 4.7956-23.2046 4.9096-26.7997 2.8544-8.4978-4.7955-21.8968-.2285-21.8968 7.4218 0 11.9886 24.5124 13.8155 27.7793 2.1691.8171-2.9685 2.4513-3.5395 16.6692-6.8507 47.3886-10.7327 92.162-15.7564 149.5204-17.0124l34.1522-.685 17.811-11.418 17.813-11.3036 8.4962.7992c45.428 3.9962 105.891 15.3 142.3303 26.7178l10.2963 3.197 6.3729 16.3274c4.7387 11.8747 7.3525 16.6703 9.804 17.698 1.7966.7991 12.2552 5.0238 23.2047 9.591 46.5715 19.182 95.104 48.1835 129.5844 77.2989 5.8822 5.0238 6.2089 5.7092 5.3917 10.9614-.8172 4.4528-.3266 5.9371 2.1249 7.8781 4.903 3.7679 9.8039 4.6816 16.1768 2.8545 6.2107-1.8269 8.9886-4.7955 8.9886-9.591 0-4.6812-8.4981-9.705-15.0333-9.1343-4.2499.4569-6.0463-.5707-17.6487-9.8195-36.2771-29.3436-80.3991-55.2623-126.3159-74.4444L797.1065 74.74c-.6531-.4568-4.0858-7.8786-7.6809-16.6702-3.9215-9.3629-7.6807-16.442-9.3132-17.3551-4.7404-2.398-43.7954-12.6741-66.5094-17.3553-30.2306-6.3941-82.1939-13.7016-96.9023-13.7016-1.7967 0-11.2742 5.1382-21.0799 11.3036zm42.651 13.245c-8.8245 6.0515-2.6153 16.5559 9.8039 16.5559 4.0855 0 7.0278-.9134 9.8057-2.7403 3.9215-2.7403 4.0842-2.7403 14.2159-1.142 16.0145 2.6263 46.5717 9.1344 60.9518 12.9022l13.073 3.5396 8.1709 16.5559 8.17 16.6701 17.975 6.8508c58.3379 22.4935 107.3608 51.6088 147.5596 87.6893l10.6229 9.4772-9.3152 13.3589-9.4772 13.2446 8.6601 9.7055c22.5516 25.3475 44.1208 62.9125 52.6181 91.9139 7.6808 25.6902 8.4979 32.5409 8.3339 67.3656 0 30.7141-.3267 34.3675-4.4123 49.6678-2.2874 9.1342-6.8623 23.1785-10.1303 31.2849l-5.7201 15.0718c0 .4567-6.5367 1.5982-28.2698 5.0239l-16.0146 2.5119-2.6136 4.6811c-1.472 2.6263-7.0277 10.7331-12.4195 17.9262-38.7285 52.2939-98.3733 93.9692-173.8687 121.2581-21.8969 7.9924-22.2235 8.1067-26.6356 6.1656-13.2365-5.3663-27.2904 2.5119-21.8974 12.4455 1.3067 2.3978 9.1513 5.1382 14.5431 5.1382 5.2293 0 12.2554-4.6816 12.2554-8.2211 0-2.2836 3.2684-3.8819 22.0609-10.5043 73.2076-25.6903 132.1991-65.1961 173.2157-116.0061 4.4121-5.3662 10.6211-14.0437 14.0521-19.4104l6.2106-9.705 19.772-3.0828 21.7344-3.5396c3.9215-1.0277 15.0332-29.3441 21.0797-53.8923 3.1043-12.9024 3.595-19.0681 3.7578-47.3843 0-39.1637-2.9407-55.3767-15.6866-87.3471-9.4776-23.2923-29.9041-55.7193-46.8999-74.2161l-6.373-6.8509 9.6413-13.4729 9.6417-13.4732-13.5631-12.2174c-16.0146-14.3862-58.5003-44.5297-78.1099-55.4907-18.4661-10.2763-47.553-23.8635-68.6327-32.0842-9.4772-3.654-17.6487-7.1936-18.1383-7.7643s-4.5756-8.1066-8.8238-16.8983l-7.8447-15.8711-12.4191-3.311c-15.1961-3.9964-39.7084-9.5911-54.0886-12.103l-16.6675-2.9686c-3.7592-.6853-6.2102-1.827-6.2102-2.8547 0-3.3112-7.6793-7.3074-13.8899-7.3074-4.0846 0-7.1902.9133-9.8039 2.8546zm182.0389 19.867c-11.4388 8.1068.8171 20.5524 15.3609 15.5283l5.0651-1.8265 18.9563 8.9056c72.5541 34.1395 134.6499 81.638 175.8296 134.7313l6.373 8.2207-10.4584 14.6148-10.2948 14.615 8.1701 14.3866c19.6092 34.2537 30.3944 68.0506 34.8067 108.3557 1.6343 16.0992 1.4703 23.6351-1.1436 59.0306l-.4908 8.1069 14.5442 13.2444c8.6605 7.7644 14.7068 14.3867 14.7068 15.8709 0 4.3389-9.478 29.8009-17.3222 46.8138-20.4259 43.6162-52.9445 85.1775-94.287 120.6872-10.7852 9.3626-11.2755 9.591-17.4854 9.2482-8.497-.3427-14.707 3.6538-14.707 9.5911 0 8.7917 15.0342 13.0161 24.0213 6.7363 3.595-2.512 4.0857-3.6532 3.2685-8.1066-.8171-5.0241-.4907-5.3661 11.9288-16.2131 40.6892-35.3959 74.1885-78.6694 93.7979-120.9158 7.5167-16.0994 15.524-37.9073 16.6676-45.4429l1.1436-6.0516-13.8895-12.3311-15.0335-13.7019c-.6543-.7993-.3273-10.8471.817-22.3789 4.7388-51.9515-9.3146-111.5529-37.0941-157.567l-5.3933-9.02 10.6221-14.8431 10.6219-14.8434-10.1319-12.7883c-12.4191-15.5283-36.44-40.5336-53.2714-55.3767-16.8317-14.729-64.057-47.4982-86.2814-59.9439-9.8038-5.4805-26.6355-13.93-37.0941-18.7255-16.3411-7.5358-19.119-9.2484-19.2817-11.8747 0-4.567-1.6341-6.5083-6.7003-8.335-6.8627-2.5119-10.9481-2.0549-16.341 1.5986zm-312.4408 5.9374c-20.4263 1.3702-43.1402 3.9963-64.3841 7.5358-17.4847 2.8544-18.6282 2.9687-21.5703 1.0276-1.6338-1.0276-5.7191-2.1693-8.8239-2.6262-5.0657-.5708-6.5362-.1141-10.9479 2.8547-7.5173 5.3662-5.8833 12.5596 3.7578 15.7567 7.844 2.626 16.3409.1141 18.9561-5.595 1.9607-3.9961 2.1237-4.1103 20.2625-7.079 59.8081-9.8195 130.565-11.1896 189.8832-3.8821 21.0798 2.6261 50.8203 7.8784 66.9984 11.6464l11.438 2.7402 9.4781 16.4417 9.3144 16.4417 20.5897 7.3075c40.3621 14.3866 78.2734 33.7971 111.2826 56.9753 17.812 12.5596 18.3018 12.9023 16.5046 16.2135-5.5558 11.1894 17.9753 18.2686 25.8184 7.764 5.0659-6.9648-2.614-15.0715-13.5631-14.3864-4.902.2283-7.1898-.9134-24.6748-12.9024-38.7285-26.8319-74.3515-44.7581-118.3085-59.9437l-12.5831-4.3389-9.478-16.6701-9.4774-16.556-15.5237-3.6536c-47.3894-10.9613-98.5368-16.442-151.1549-16.2135-16.178.1142-35.9506.6849-43.7941 1.1418zM285.3045 85.1299c-71.8996 30.6003-134.9761 75.0158-176.9733 124.912l-6.8635 8.1068-22.8765 3.8818-24.3481 4.5672c-2.1251.9134-13.8897 19.9816-22.2252 35.9663C9.6322 305.7236-.5 346.3716-.5 393.8698c0 44.0733 7.5165 79.2404 25.3278 117.7185 26.6372 57.5463 69.4497 108.0135 127.6236 150.6022 16.1787 11.8747 16.8315 12.5598 16.8315 17.4692.1644 4.1105.9815 5.5947 4.5766 7.7645 11.9288 7.193 28.9226-2.1698 21.7325-11.8748-2.9402-3.9962-10.785-6.2797-16.341-4.7954-3.5951.9132-5.7182-.2284-21.7326-11.7606-82.6864-59.2586-134.978-137.928-149.358-225.1607-2.7782-16.2136-2.7782-62.4559 0-79.3543 6.2104-38.4787 19.447-74.4449 40.5267-109.2696 7.8431-12.9022 9.8039-15.1858 13.399-15.7564 2.2873-.3427 13.2367-2.2835 24.1842-4.2247l19.9361-3.5394 7.6806-9.2488c9.968-12.217 25.9826-28.4305 41.3424-41.7894 14.3802-12.7878 56.2148-42.246 73.6994-52.1798 26.1449-14.6149 68.9592-34.5963 74.3508-34.5963 1.472 0 5.556 1.0277 8.9885 2.2836 4.9012 1.7128 6.5355 3.0829 6.5355 5.0238 0 4.3389 1.6342 6.3943 6.6994 8.1068 6.8635 2.5118 10.9493 2.0553 16.3427-1.5982 5.7182-3.9966 6.2089-8.7921 1.4703-13.0167-4.4123-3.8818-11.6023-4.9094-17.4848-2.5119-4.412 1.7126-5.0669 1.7126-14.0536-1.0277l-9.8057-2.9685c-.1623 0-7.6789 3.1969-16.6674 6.9647zm218.1528 1.1421c-34.3163 2.8545-73.8602 9.5909-106.7063 18.2685-15.8505 4.1103-53.2712 16.3276-62.7502 20.4379-2.4515 1.142-6.6997.3427-24.8373-4.4528l-21.8985-5.8233-10.7834 5.3665c-63.7315 31.5135-115.3683 73.1888-151.3189 122.2858l-9.4773 12.788H95.585 75.4867l-4.7405 8.7917c-22.2234 40.5333-32.5179 77.299-34.1523 122.1714-.4905 14.6148-1.6342 26.6038-2.4514 26.6038-3.4308 0-9.4773 5.8231-9.4773 9.1343 0 4.2246 7.6809 10.2761 13.0724 10.2761 5.8824 0 12.5835-3.1972 14.5445-6.9651 2.1231-4.4528-1.1438-10.7326-6.373-11.8744l-3.7593-.7992.9813-26.4896c1.4702-42.9314 11.6023-80.3819 31.7006-117.1474l4.7389-8.5633 20.5907-.3428 20.5891-.3427 4.2482-6.9649c10.6228-17.0127 37.749-47.2701 59.3192-65.9952 14.3802-12.5595 43.3031-33.3404 59.9705-43.2741s41.6707-22.9498 43.958-22.9498c.9812 0 10.9492 2.3978 22.0609 5.3663l20.2626 5.2522 23.0404-8.1064c66.3454-23.2926 127.6236-33.5686 200.5044-33.5686 29.7417 0 47.3887.9131 71.0839 3.7679l9.8039 1.1415 8.3355 10.7331c7.5168 9.591 8.1697 10.847 6.2088 13.2445-7.8431 9.8194 8.4979 19.2964 21.244 12.3312 9.151-5.0238 3.1043-17.0124-8.6621-17.0124-4.4104 0-5.5558-.9135-14.052-11.7606l-9.1509-11.8745-18.3018-2.0551c-20.9173-2.398-96.087-3.4256-117.1666-1.5985zm179.5888 18.0402c-5.2292 3.7679-5.883 6.6227-2.288 11.4182 2.4504 3.425 5.3925 4.681 10.622 4.681 2.2871 0 4.0847 1.827 6.6993 6.9651 3.5951 6.7367 3.9217 7.0789 13.5631 9.9333 94.9417 28.3168 173.7055 84.036 212.4332 150.3738 21.8973 37.5649 32.6819 81.5239 29.5775 120.5729l-1.1437 15.6427-16.5045 3.4252-16.668 3.4257-3.5952-2.2838c-1.9608-1.3704-6.0465-2.2836-9.4773-2.3978-9.968-.2285-16.8316 7.4216-12.9101 14.6149 1.3078 2.1696 8.9884 5.1381 13.5631 5.1381 4.4121 0 12.9101-5.2521 13.563-8.3352.4907-2.0552 3.1054-2.9685 18.3028-5.9371 15.034-2.9687 18.1385-3.9961 19.4454-6.394 2.2882-4.1107 2.1239-51.2665-.1633-63.8263-10.4587-55.0339-41.0157-105.0445-89.3858-146.7198-6.5362-5.709-21.0798-16.4416-32.1913-23.9773-32.8462-22.3794-64.0571-37.5649-106.8704-52.1797l-22.8782-7.7645-2.941-5.8231c-2.9414-5.4807-2.9414-5.8229 0-7.9927 4.5752-3.5395 3.9223-9.9332-1.6337-13.1306-6.2105-3.7679-13.0731-3.5395-19.1189.571zm-157.5276 6.6225c-94.6154 5.4805-176.1562 29.9147-245.9324 73.6456-8.6619 5.3662-20.4266 13.5872-26.309 18.2683l-10.6229 8.5634 3.1045 18.1545 3.1061 18.1544-13.2364 15.3003c-28.1075 32.7693-46.0828 71.4758-50.1668 108.5842-.9813 9.2483-1.3077 9.8193-6.537 12.9021-4.248 2.512-5.5559 4.1103-5.5559 7.0788 0 5.3666 1.3079 7.3074 6.6994 9.1344 6.8637 2.512 10.9495 2.0555 16.341-1.5983 6.373-4.567 6.373-9.3626-.1623-14.0442-5.884-3.9962-6.2107-7.5358-2.4513-25.9185 7.3525-34.8247 25.1652-69.535 50.493-97.6232l11.1118-12.3313-2.7781-18.0401-2.9402-18.0402 5.0653-4.4532c2.7779-2.5118 12.5818-9.591 21.8968-15.8708 60.4612-40.6479 137.9181-66.9086 222.7276-75.3581 21.5704-2.1692 74.1884-2.8543 95.923-1.2559l12.4194 1.0277 5.7182 9.2483c5.3935 8.6777 5.5576 9.4771 3.1061 11.418-7.1902 5.5948 0 15.6426 10.9475 15.6426 8.6621-.1144 14.871-4.4529 14.871-10.2761 0-3.3114-8.6604-9.1344-13.3991-9.1344-3.2683 0-4.7403-1.4844-10.132-10.276-4.5764-7.6501-7.1902-10.3904-9.8039-10.847-13.4009-2.1698-61.6067-3.4256-83.5034-2.0553zm39.3817 19.867c-2.2876 1.256-4.2487 3.0829-4.2487 3.9961 0 1.256-3.1049 1.5988-15.1971 1.5988-33.4992 0-77.7832 5.5948-113.8974 14.2721-42.65 10.2761-92.8169 30.9427-122.2307 50.1246-8.0071 5.2524-9.1509 5.5948-16.341 5.3665-10.1318-.2283-15.6875 3.3113-15.3608 9.8194.4902 9.02 14.2169 12.4456 23.5309 6.0515 4.4123-3.0829 4.9025-4.1104 3.922-7.9925-.9803-4.3387-.817-4.4531 11.6022-11.9888 65.0373-38.4783 149.0305-61.0856 227.6308-61.0856 14.5436 0 15.034.1138 18.9556 3.3111 6.6999 5.5947 18.3019 5.0239 22.7141-1.142 3.5951-4.7955 2.9414-7.6499-2.2877-11.4178-5.7194-3.9964-12.5826-4.3386-18.7922-.9134zm104.4187 16.442c-5.7187 3.8818-5.392 8.9056.6543 13.2445 5.7188 3.9962 12.5819 4.3388 18.4647 1.0274l4.0852-2.169 22.0611 7.6497c113.0792 39.6202 187.2676 114.6358 200.8307 203.0103l1.9609 12.7879-5.5559 3.4255c-4.4123 2.7405-5.3917 4.1103-5.229 7.7643.1638 5.3661 6.3731 9.5911 13.7269 9.5911 5.8823 0 14.5432-5.3667 14.5432-9.1345 0-3.5396-4.412-8.9061-8.0068-9.7053-2.6149-.5707-3.2678-2.1695-4.2492-10.0478-10.4582-91.4573-90.0387-172.9807-207.2036-212.3727-16.8318-5.709-21.0801-7.6501-21.8971-9.9337-2.6155-7.9926-16.1786-10.847-24.1854-5.1377zm-404.1136 1.7124c-3.9215 2.6261-6.0462 7.079-4.5752 9.7054.6537 1.2559-5.556 6.2798-19.1191 15.7565-70.4302 48.9827-113.7335 109.6117-127.9508 179.4892-3.5949 17.4696-4.0848 58.5738-.8166 76.8424l2.2877 12.7881 21.5702 8.6776c20.5897 8.1068 21.7333 8.7917 22.8771 12.788.654 2.2837 4.2492 10.8471 8.1711 19.068 19.4456 40.5336 48.6961 74.7871 91.1826 106.3006 10.4585 7.7641 11.9288 9.3628 10.7851 11.6462-2.1245 3.9964 1.9609 9.8194 8.1709 11.6461 4.5752 1.2561 6.0458 1.2561 10.9481-.3423 9.8049-3.3113 11.6023-10.5047 3.9219-15.8708-4.4122-3.083-5.8827-3.4256-11.2749-2.7404-6.2101.685-6.5366.5708-21.0805-10.0479-32.6821-23.9774-62.9131-57.4319-79.9074-88.4885-4.5759-8.6778-14.3801-29.915-15.8506-35.053-.9807-3.0829-3.7586-4.567-22.0607-11.8745-24.1846-9.5911-21.7338-6.3943-24.8386-31.6277-2.1241-16.8985-.9802-46.8135 2.4515-63.7119 13.8895-67.4796 54.9056-125.8251 121.9038-173.3234l22.2243-15.6425 7.3531.6847c6.3729.5711 8.0072.3429 11.7658-1.9407 6.6999-4.1107 7.3531-8.9062 1.961-13.359s-14.3801-5.0238-20.0998-1.3702zm728.4835 58.0031c-7.3524 2.5119-10.1304 8.7917-5.8822 13.2446 2.6137 2.8546 2.4515 3.197-4.4123 12.9024l-7.1901 9.9335 7.6809 11.4176c9.4773 14.273 21.406 35.9666 26.1447 47.9555 3.1045 7.9922 3.2687 9.1344 1.1437 10.0476-1.4702.4565-3.4309 2.7401-4.4122 4.9101-2.6138 5.5944 1.7985 10.9608 10.2963 12.4449 16.1768 2.8548 23.8577-13.2446 8.6603-18.3827-5.3935-1.7125-6.0465-2.6257-13.2366-18.4968-4.2482-9.1344-12.4195-24.0919-18.3018-33.2262l-10.4588-16.5559 6.0466-8.906c5.2293-7.3074 6.8636-8.7919 10.1321-8.7919 15.0333 0 19.772-14.957 5.8824-18.9535-6.6996-1.9412-5.2294-1.9412-12.093.4568zm-798.7496 39.0491c-5.0663 3.3113-6.2105 7.7641-3.105 11.6463 2.6146 3.1968 2.6146 3.5395-3.9224 12.6737-19.6088 27.2887-34.1523 62.7983-38.891 95.4537-2.125 14.5005-2.2877 49.211-.3268 52.9792.9798 1.5981 9.4777 6.6221 21.2429 12.3313l19.6089 9.591 2.6154 8.5634c1.3068 4.6812 6.2091 16.67 10.785 26.4893 39.382 85.8627 144.6181 151.9722 272.7321 171.4968 27.9433 4.2245 47.8793 5.4804 83.5021 5.0239l32.1926-.3426 5.5559 6.394c5.556 6.166 5.556 6.3942 3.1048 10.0477-2.2878 3.4257-2.2878 3.9965.6528 7.8785 8.0074 10.3903 29.7415 4.7956 26.1466-6.7365-1.3075-3.9961-9.6413-8.2212-15.0343-7.5357-2.9409.3421-4.9019-1.0277-10.6215-7.3075-6.6994-7.5361-7.0264-7.7642-12.746-7.3074-25.3286 2.1693-65.5282 1.256-95.5949-2.398-74.1883-8.7917-142.8206-33.5687-196.7466-71.2476-47.5528-33.2259-82.8486-77.9844-96.9023-123.4274l-3.7583-12.1028-18.465-9.0205c-10.1323-4.9095-19.6096-9.9333-21.0802-10.9609-3.922-3.0829-2.1245-50.1246 2.6141-68.6218 7.027-27.8593 17.812-51.9514 33.1728-74.2159 7.6804-11.1897 8.8243-12.2174 12.9093-12.2174 7.0268 0 13.5631-4.5672 13.5631-9.4767 0-8.5634-14.5436-13.245-23.2041-7.6501zm864.9317 5.1381c-5.7201 3.8819-5.5562 10.0478.1623 13.7012 2.4513 1.5987 6.0463 2.8547 8.007 2.8547 3.1051 0 4.2495 1.5986 9.478 13.3589 14.2175 31.7416 22.0604 64.1684 23.5311 97.0522l.9808 21.9223-5.0651 3.4251c-10.1322 6.5085-4.7393 17.2413 8.6602 17.2413 12.4195 0 18.4657-9.9339 9.8042-16.442-2.1235-1.5983-4.739-2.9684-5.7184-2.9684s-1.6343-5.1383-1.6343-14.6149c0-33.2261-8.8244-72.1614-24.6748-108.0134-4.7392-10.733-4.9028-11.5322-2.4513-14.5008 6.2088-7.4217.3263-15.8708-11.276-15.8708-4.0856 0-7.1901.9133-9.8037 2.8546zM86.271 296.3614c-3.9215 1.5981-8.0072 8.3348-6.5365 10.9609.49 1.142 2.2885 3.0831 3.9224 4.339 2.7781 2.2836 2.7781 2.7402-.9809 15.8708-11.7654 40.4194-12.4195 88.9454-1.6343 129.0222l2.4515 9.3628c0 .2283 9.4773 3.7678 20.9166 7.764s21.7334 7.9924 22.7143 8.906c.8168.7992 3.1047 4.7956 4.9015 8.9058 11.2758 25.2334 34.1538 57.318 57.5208 80.4963 72.0635 71.4758 184.8177 119.431 306.5577 130.0497 10.785 1.0277 22.5514 1.9409 26.1466 2.0554 6.0461.3422 7.3525 1.1416 22.0597 13.2444l15.5242 12.9025 22.8773-.571c70.267-1.8266 146.5795-17.9262 213.4144-44.8724 11.1116-4.3385 13.0724-4.7955 16.6674-3.6535 13.8897 4.3389 26.1464-8.7919 15.0341-16.0994-9.1514-5.9374-23.6942-1.3703-23.6942 7.4216 0 3.654-.8172 4.2248-10.9494 8.3349-43.6297 17.8123-94.2869 31.2853-143.8005 38.4787-24.0218 3.4253-57.1945 6.2799-74.0249 6.2799h-12.2566l-16.0136-13.1306-15.8512-13.1306h-8.6602c-4.5762 0-16.1779-.7994-25.6561-1.5988-126.8065-11.8746-238.2515-60.7432-308.8449-135.5302-20.5908-21.6941-42.4877-53.7784-51.6385-75.9292l-2.9405-7.079-21.7343-7.7641c-11.9287-4.3389-22.0604-8.6776-22.55-9.5911-1.4716-3.3112-5.556-21.2374-7.3541-33.1118-2.6138-15.4141-2.6138-53.2072-.1633-67.9365 2.1241-12.6739 7.5174-35.3954 9.968-41.7893 1.307-3.3114 2.6149-4.3391 6.5364-4.7956 3.1044-.4567 5.7198-1.941 7.3542-4.1107 3.5949-5.0239 3.1045-7.8784-2.2886-11.6463-5.0656-3.5395-11.602-4.2245-16.9945-2.0548zm936.3418 60.5147c-1.7973.6848-4.0849 2.9685-5.3921 5.0238-2.9417 5.0239-.4907 10.276 6.3728 12.6737l4.9024 1.8266-.9809 25.2339c-1.7973 46.2426-14.3798 87.0044-39.5449 126.6246-27.1262 42.8169-73.3713 86.8899-119.7799 114.5211l-11.6022 6.8509.9805 16.099.9804 16.0993-10.4583 5.024c-71.0835 34.1395-144.7819 54.2348-227.7941 62.1133-10.7851 1.0277-33.6625 2.1694-50.9844 2.512l-31.3745.6849-15.524 12.2174-15.6876 12.217-18.3017-1.5982c-75.4957-6.28-149.1941-23.7495-215.5388-51.2666-12.2555-5.1381-17.9749-8.1069-17.6479-9.3628.49-4.2245-.327-6.1653-4.249-8.7917-5.5558-3.9963-12.7458-3.7679-19.1189.571-4.2485 3.0831-4.9024 4.1105-4.0853 7.764.654 2.2837 2.6147 5.1384 4.5754 6.1659 3.7588 2.2835 14.5438 2.7404 17.1581.9133 1.1443-.7993 7.5173 1.3702 19.6095 6.3942 69.4495 29.2299 144.455 46.3567 233.677 53.3213l6.6995.5711 15.6877-12.3312 15.6871-12.2174 29.0872-.6849c104.9094-2.3979 205.5705-26.2613 287.2755-68.1652l8.1707-4.2244-1.144-15.7564-1.1438-15.871 10.1317-6.2799c66.6713-41.1044 117.3286-97.2805 142.3303-157.6813 12.4194-30.143 17.1581-52.8647 18.4656-86.7759.817-25.3477.9804-25.6903 4.9019-27.9739 2.2881-1.37 4.2489-3.9964 4.9023-6.5083.8171-3.6535.1638-4.6812-4.0852-7.7641-5.229-3.6535-11.6024-4.4528-17.1581-2.1691zm-980.9533 98.308c-1.9609.571-4.4122 2.3977-5.392 3.8822-3.922 6.0514-1.1441 11.1895 7.0262 13.5873 4.7387 1.37 5.5559 2.3977 7.3539 8.2208 3.595 11.3037 14.3799 34.5962 22.5502 48.8687l7.8442 13.7014-2.778 4.1104c-2.4513 3.3112-2.6148 4.7955-1.1445 7.7643 3.5951 7.1932 17.4854 8.7916 24.3481 2.7402 6.5371-5.9374 1.7982-14.3866-8.8239-15.8709-5.3922-.6851-5.8828-1.1419-13.726-15.0716-9.315-16.3276-18.956-37.1082-21.8971-47.1558-1.798-6.2799-1.798-6.8508 1.6339-9.3628 2.4514-1.7126 3.5951-4.1104 3.5951-6.9649 0-7.65-10.4581-11.9889-20.5901-8.4493zm886.6651 3.9962c-6.3729 1.2561-9.8038 3.3113-11.438 6.6225s-2.615 3.882-9.1509 4.5673c-4.7387.4566-7.6808 1.3699-8.3337 2.6258-8.334 18.1545-25.8196 44.0731-40.0364 59.259-44.1201 47.2702-110.6283 84.0359-183.346 101.505l-11.4388 2.7405-3.4322-2.2836c-3.9215-2.6263-13.2364-2.9688-17.3207-.7993-7.5175 3.9963-8.1712 10.0478-1.634 14.6149 8.007 5.5949 18.9547 3.7678 23.6934-3.8821 1.9609-3.1969 4.0857-4.1105 17.4854-7.5359 95.5957-24.3199 176.1571-79.5827 214.0683-146.7199 7.19-12.7881 8.1697-13.9298 13.2357-15.0716 4.7392-1.1418 5.8834-1.0276 9.968 1.3703 6.373 3.7679 13.2359 3.5393 19.2823-.571 5.2294-3.7679 5.8826-6.6224 2.2875-11.4179-2.4505-3.3114-9.4776-5.8232-13.8899-5.024zm113.5706 19.1821c-5.0661 3.4256-5.2289 8.3349-.654 12.4457 4.0859 3.6535 3.7591 5.2521-6.2089 24.6625-24.5123 47.3843-61.4423 88.9452-112.5903 126.7385l-17.8111 13.1306 1.3066 15.757c.9808 12.103.8171 16.213-.6536 17.5837-3.7583 3.0827-38.2378 20.6664-57.6834 29.3435-18.7922 8.4496-19.4461 8.5634-23.8583 6.9653-7.0271-2.5119-11.112-2.0553-16.5043 1.5981-5.8826 4.2251-6.2098 9.0205-.8171 13.3589 7.8432 6.5086 23.8575 2.512 23.8575-6.0514 0-2.0549.6541-3.7679 1.4709-3.7679 2.6149 0 50.1674-22.4929 66.0182-31.399l16.0145-8.7916-.9814-16.7847-.9796-16.6698 13.2359-9.7054c56.7029-41.3328 97.5562-88.831 121.9046-141.9246 3.595-7.6497 5.3915-9.9332 7.6798-9.9332 5.2291 0 10.9483-5.1381 10.9483-10.0479 0-8.6775-14.8702-12.7883-23.6943-6.5083zM96.8931 492.2921c-5.3925.6853-10.4585 6.8507-9.3149 11.1898.9805 3.996 7.6807 8.5634 12.4195 8.5634 1.9607 0 3.7583 1.1415 4.902 3.0828 5.8832 11.0753 17.9752 29.4582 25.4926 38.9347l8.8236 11.0754-8.4969 14.7294c-7.5168 12.9021-8.3338 14.9571-6.373 17.1268 1.1436 1.2559 8.1705 8.1066 15.6871 15.0714 55.396 51.7233 129.4212 91.8001 216.3555 117.0335 16.8315 4.9095 18.7923 5.8232 20.0993 8.9057 3.9224 10.7333 27.2898 8.4496 27.2898-2.7402 0-8.335-12.7462-12.4453-22.7143-7.5358l-4.5755 2.2836-16.9941-4.9094c-40.5259-11.5324-88.7319-31.3995-124.3559-51.1522-33.1718-18.497-72.0636-46.9276-96.4118-70.6768l-9.151-9.0202 8.0071-13.9299c4.4117-7.6501 8.0066-14.5005 8.0066-15.2999s-2.2872-4.2249-5.0651-7.4217c-7.3534-8.906-15.0341-19.6389-23.5311-33.4543l-7.517-12.4456 3.5949-4.7956c3.2682-4.3386 3.4313-5.1378 1.4707-8.5634-1.4707-2.3975-4.0851-4.2246-7.5167-5.2524-3.1053-.9131-5.7197-1.4841-5.8832-1.4841-.3264.1143-2.124.4565-4.2482.685zm838.2957 37.2223c-3.9217 2.969-4.7387 8.221-1.7977 12.56 1.6333 2.5118.6538 4.2243-9.8047 15.5282C879.7928 605.9 819.4939 643.922 747.921 668.4703c-31.376 10.733-54.2524 16.6701-85.6284 22.1507-30.3933 5.3663-67.4873 9.1343-69.2855 7.1935-.8172-.6855-5.3918-6.2799-10.4588-12.3314l-9.1508-10.9613-31.3741-.6851c-32.8463-.6848-52.9448-2.3979-81.0522-7.0792-32.6819-5.4804-68.795-14.9574-95.7588-25.2334-11.274-4.3389-13.2357-5.3666-12.5819-7.6503.3267-1.3699-.8169-4.11-2.6155-6.1654-8.1694-9.2482-28.7589-2.9685-25.4919 7.7643 1.9608 5.9373 12.5837 9.3625 20.1004 6.5081 3.5951-1.37 6.373-.5708 30.3946 7.6499 54.7416 18.9539 115.3664 29.0016 175.6654 29.1155l18.9565.1142 10.2945 12.4458c5.7195 6.9647 10.6211 12.5598 10.9475 12.5598 4.2499 0 41.8339-3.9962 53.5996-5.7093 113.8962-16.3275 213.4142-63.5974 279.5955-132.6759 7.5166-8.1067 14.216-15.6424 14.8706-16.8984.6533-1.5985 2.4497-2.2837 5.7184-2.2837 2.6154 0 6.8637-1.2558 9.6416-2.9684 6.2093-3.5395 6.6993-8.9061 1.6343-13.4732-4.5765-3.9963-15.5239-4.2247-20.7532-.3427zm-766.2323 59.6015c-5.7191 1.7126-9.3137 6.9649-7.6805 11.3036 1.4714 4.4531 8.4976 7.7642 15.0344 7.3074 4.9018-.4565 6.0464.2284 15.6869 8.221 13.727 11.4179 40.8532 29.4581 59.9721 40.1909 44.7745 25.0054 89.7122 42.4747 143.4739 55.7194 20.1002 4.9098 22.061 5.7089 24.0219 9.0201 2.4512 3.9963 11.6021 7.4218 16.5045 6.1659 5.8827-1.4845 10.2949-5.2524 10.2949-9.0203 0-5.2522-1.4714-7.1934-6.6998-9.0202-6.5366-2.3976-10.4583-2.1692-15.6874 1.0275-5.0658 2.9689-2.6154 3.3112-30.7213-3.5395-45.7548-11.1893-98.3731-31.9701-138.0824-54.4632-14.5428-8.1067-45.4279-29.0015-58.991-39.6201-9.1509-7.3074-9.4773-7.7642-7.8432-11.1896 1.7969-3.6536-.1642-9.5911-3.7592-11.0752-4.412-1.9412-10.9478-2.3978-15.5238-1.0277zm321.9187 130.0498c-3.4311 2.1698-4.5747 3.768-4.5747 7.1937 0 4.1101-.6548 4.9093-8.9885 9.1342-6.6994 3.5394-9.6416 4.453-11.7646 3.6537-7.6807-2.8547-20.9174 2.2835-20.9174 8.1069 0 4.1104 4.5763 8.7915 9.968 10.1618 9.9681 2.3977 20.9174-4.2249 18.3018-11.0755-.6529-1.7128 1.3078-3.4255 8.0073-6.8506 8.0072-4.2248 9.3149-4.5671 16.994-3.9963s8.4978.3423 12.5837-3.0827c5.7198-4.6818 5.5558-8.4497-.3267-12.6742-6.0464-4.1105-12.9101-4.3389-19.2829-.571zM748.9 745.5411c-1.9608 1.0276-4.0852 3.4252-4.9022 5.3663-1.1438 3.3112-2.4504 3.882-17.4848 7.4216-33.4991 7.8786-77.6198 14.5008-115.5312 17.3551-25.1654 1.9412-28.1069 1.7128-33.6627-2.1691-6.6999-4.5672-13.5631-4.5672-20.0991-.1144-5.0661 3.5395-5.8828 6.7366-2.778 10.7331 2.778 3.8817 6.373 5.2522 13.0726 5.3662 4.7388 0 6.8635-.7992 10.6216-3.7679l4.5757-3.882 22.0606-1.256c40.362-2.5118 84.81-8.906 123.2117-17.926l17.4848-4.1106 4.2481 2.398c9.315 5.0238 21.7344.6849 21.7344-7.7644 0-7.9926-12.9099-12.3313-22.5515-7.6499z"/></svg>