<?xml version="1.0" encoding="utf-8"?>
<svg viewBox="0 0 626 626" xmlns="http://www.w3.org/2000/svg">
  <defs>
    <linearGradient gradientUnits="userSpaceOnUse" x1="4860.968" y1="4300" x2="4860.968" y2="4890" id="gradient-0">
      <stop offset="0" style="stop-color: rgb(100% 78.039% 0%)"/>
      <stop offset="1" style="stop-color: rgb(59.89% 43.888% 0%)"/>
    </linearGradient>
    <linearGradient gradientUnits="userSpaceOnUse" x1="2655" y1="4040" x2="2655" y2="4724.351" id="gradient-1">
      <stop offset="0" style="stop-color: rgb(100% 78.039% 0%)"/>
      <stop offset="1" style="stop-color: rgb(59.89% 43.888% 0%)"/>
    </linearGradient>
    <linearGradient gradientUnits="userSpaceOnUse" x1="2937.558" y1="3490" x2="2937.558" y2="4169.382" id="gradient-2">
      <stop offset="0" style="stop-color: rgb(100% 78.039% 0%)"/>
      <stop offset="1" style="stop-color: rgb(59.89% 43.888% 0%)"/>
    </linearGradient>
    <linearGradient gradientUnits="userSpaceOnUse" x1="4659.464" y1="3601.032" x2="4659.464" y2="3847.438" id="gradient-3">
      <stop offset="0" style="stop-color: rgb(100% 78.039% 0%)"/>
      <stop offset="1" style="stop-color: rgb(59.89% 43.888% 0%)"/>
    </linearGradient>
    <linearGradient gradientUnits="userSpaceOnUse" x1="4892.661" y1="3610" x2="4892.661" y2="3676.272" id="gradient-4">
      <stop offset="0" style="stop-color: rgb(100% 78.039% 0%)"/>
      <stop offset="1" style="stop-color: rgb(59.89% 43.888% 0%)"/>
    </linearGradient>
    <linearGradient gradientUnits="userSpaceOnUse" x1="4823.454" y1="3320" x2="4823.454" y2="3539.687" id="gradient-5">
      <stop offset="0" style="stop-color: rgb(100% 78.039% 0%)"/>
      <stop offset="1" style="stop-color: rgb(59.89% 43.888% 0%)"/>
    </linearGradient>
    <linearGradient gradientUnits="userSpaceOnUse" x1="4060.36" y1="3461.958" x2="4060.36" y2="3530.286" id="gradient-6">
      <stop offset="0" style="stop-color: rgb(100% 78.039% 0%)"/>
      <stop offset="1" style="stop-color: rgb(59.89% 43.888% 0%)"/>
    </linearGradient>
    <linearGradient gradientUnits="userSpaceOnUse" x1="2794.436" y1="3200.321" x2="2794.436" y2="3269.374" id="gradient-7">
      <stop offset="0" style="stop-color: rgb(100% 78.039% 0%)"/>
      <stop offset="1" style="stop-color: rgb(59.89% 43.888% 0%)"/>
    </linearGradient>
    <linearGradient gradientUnits="userSpaceOnUse" x1="2971.712" y1="2990.491" x2="2971.712" y2="3057.473" id="gradient-8">
      <stop offset="0" style="stop-color: rgb(100% 78.039% 0%)"/>
      <stop offset="1" style="stop-color: rgb(59.89% 43.888% 0%)"/>
    </linearGradient>
    <linearGradient gradientUnits="userSpaceOnUse" x1="4823.454" y1="2720.313" x2="4823.454" y2="2940" id="gradient-9">
      <stop offset="0" style="stop-color: rgb(100% 78.039% 0%)"/>
      <stop offset="1" style="stop-color: rgb(59.89% 43.888% 0%)"/>
    </linearGradient>
    <linearGradient gradientUnits="userSpaceOnUse" x1="4060.751" y1="2729.714" x2="4060.751" y2="2798.042" id="gradient-10">
      <stop offset="0" style="stop-color: rgb(100% 78.039% 0%)"/>
      <stop offset="1" style="stop-color: rgb(59.89% 43.888% 0%)"/>
    </linearGradient>
    <linearGradient gradientUnits="userSpaceOnUse" x1="2937.854" y1="2092.22" x2="2937.854" y2="2770" id="gradient-11">
      <stop offset="0" style="stop-color: rgb(100% 78.039% 0%)"/>
      <stop offset="1" style="stop-color: rgb(59.89% 43.888% 0%)"/>
    </linearGradient>
    <linearGradient gradientUnits="userSpaceOnUse" x1="4659.464" y1="2412.562" x2="4659.464" y2="2658.968" id="gradient-12">
      <stop offset="0" style="stop-color: rgb(100% 78.039% 0%)"/>
      <stop offset="1" style="stop-color: rgb(59.89% 43.888% 0%)"/>
    </linearGradient>
    <linearGradient gradientUnits="userSpaceOnUse" x1="4892.5" y1="2582.896" x2="4892.5" y2="2649.894" id="gradient-13">
      <stop offset="0" style="stop-color: rgb(100% 78.039% 0%)"/>
      <stop offset="1" style="stop-color: rgb(59.89% 43.888% 0%)"/>
    </linearGradient>
    <linearGradient gradientUnits="userSpaceOnUse" x1="2655" y1="1536.763" x2="2655" y2="2220" id="gradient-14">
      <stop offset="0" style="stop-color: rgb(100% 78.039% 0%)"/>
      <stop offset="1" style="stop-color: rgb(59.89% 43.888% 0%)"/>
    </linearGradient>
    <linearGradient gradientUnits="userSpaceOnUse" x1="4860" y1="1370" x2="4860" y2="1960" id="gradient-15">
      <stop offset="0" style="stop-color: rgb(100% 78.039% 0%)"/>
      <stop offset="1" style="stop-color: rgb(59.89% 43.888% 0%)"/>
    </linearGradient>
  </defs>
  <g transform="matrix(0, -0.117610000074, -0.109881997108, 0, -2817.781715428104, -2812.254374485565)" fill="#000000" stroke="none" style="transform-origin: 3127.5px 3130px;">
    <path d="M5630 4860 c-27 -29 -32 -30 -112 -30 l-83 0 -165 -165 -165 -165&#10;-398 0 c-283 0 -403 3 -416 12 -26 16 -53 3 -49 -24 4 -28 39 -36 58 -13 11&#10;13 62 15 396 15 211 0 384 -3 384 -8 0 -4 -33 -40 -73 -80 l-72 -72 -489 0&#10;c-386 0 -487 -3 -484 -12 4 -10 114 -14 499 -16 l494 -2 95 95 95 95 111 0&#10;c87 0 114 -3 124 -15 16 -20 56 -19 64 1 10 25 7 33 -15 44 -16 9 -24 8 -38&#10;-4 -14 -13 -41 -16 -127 -16 l-109 0 150 150 150 150 78 0 c72 0 81 -2 99 -25&#10;39 -49 128 -20 128 42 0 32 -43 73 -76 73 -16 0 -37 -11 -54 -30z" style="fill: url('#gradient-0');"/>
    <path d="M4713 4720 c-12 -5 -28 -18 -35 -30 -12 -19 -22 -20 -288 -20 l-275&#10;0 -300 -300 -300 -300 -1507 0 c-1334 0 -1508 -2 -1508 -15 0 -13 175 -15&#10;1513 -15 l1512 0 300 300 300 300 272 0 c255 0 272 -1 278 -18 6 -19 44 -42&#10;71 -42 23 0 64 47 64 73 0 49 -53 84 -97 67z" style="fill: url('#gradient-1');"/>
    <path d="M5100 4155 c-11 -13 -95 -15 -649 -15 l-636 0 -180 -180 -180 -180&#10;-1477 0 c-1307 0 -1478 -2 -1478 -15 0 -13 168 -15 1455 -15 800 0 1455 -3&#10;1455 -8 0 -4 -53 -60 -118 -125 l-117 -117 -1340 -3 -1340 -2 1345 -3 1345 -2&#10;130 130 130 130 115 0 115 0 100 100 100 100 683 0 684 0 20 -25 c24 -31 77&#10;-34 101 -7 25 28 22 87 -5 106 -36 26 -74 20 -100 -14 l-22 -30 -691 0 -690 0&#10;-100 -100 -100 -100 -90 0 -90 0 175 175 175 175 631 0 c558 0 633 -2 644 -15&#10;19 -23 54 -15 58 14 6 37 -34 55 -58 26z" style="fill: url('#gradient-2');"/>
    <path d="M5527 3835 c-14 -13 -105 -15 -794 -15 l-778 0 -79 -79 c-49 -50 -89&#10;-81 -107 -85 -23 -4 -29 -11 -29 -31 0 -23 4 -26 27 -23 19 2 29 10 33 26 3&#10;13 39 57 80 98 l75 74 782 0 c515 0 783 -3 783 -10 0 -17 50 -11 57 6 7 18 -6&#10;45 -24 51 -6 2 -18 -3 -26 -12z" style="fill: url('#gradient-3');"/>
    <path d="M5290 3665 c-11 -13 -64 -15 -406 -15 -256 0 -394 4 -394 10 0 15&#10;-48 12 -53 -2 -6 -18 11 -48 27 -48 8 0 19 7 26 15 11 13 68 15 402 15 336 0&#10;389 -2 394 -15 8 -20 53 -19 61 1 14 36 -33 68 -57 39z" style="fill: url('#gradient-4');"/>
    <path d="M5495 3530 c-4 -6 -103 -10 -263 -10 l-257 0 -85 -85 -85 -85 -324 0&#10;c-285 0 -327 2 -342 16 -24 22 -49 11 -49 -21 0 -20 5 -25 24 -25 14 0 28 5&#10;31 10 4 6 128 10 338 10 l332 0 80 80 80 80 255 0 c203 -1 259 -4 273 -15 31&#10;-23 64 4 51 40 -7 17 -49 20 -59 5z" style="fill: url('#gradient-5');"/>
    <path d="M3531 3516 c-17 -20 -3 -46 25 -46 13 0 24 5 24 10 0 7 165 10 474&#10;10 409 0 475 -2 486 -15 25 -30 67 -4 55 35 -8 24 -53 28 -61 5 -9 -23 -935&#10;-23 -954 0 -16 19 -34 19 -49 1z" style="fill: url('#gradient-6');"/>
    <path d="M5030 3255 c-11 -13 -279 -15 -2274 -18 l-2261 -2 2266 -3 c2004 -2&#10;2268 -4 2273 -17 8 -21 43 -19 55 3 21 39 -31 71 -59 37z" style="fill: url('#gradient-7');"/>
    <path d="M5390 3045 c-11 -13 -268 -15 -2454 -17 l-2441 -3 2440 -2 c2155 -3&#10;2440 -5 2448 -18 11 -20 41 -19 58 1 9 11 10 20 2 32 -14 23 -37 26 -53 7z" style="fill: url('#gradient-8');"/>
    <path d="M4090 2915 c0 -32 25 -43 49 -21 15 14 57 16 342 16 l324 0 85 -85&#10;85 -85 257 0 c160 0 259 -4 263 -10 10 -15 52 -12 59 5 13 36 -20 63 -51 40&#10;-14 -11 -70 -14 -273 -15 l-255 0 -80 80 -80 80 -332 0 c-210 0 -334 4 -338&#10;10 -3 6 -17 10 -31 10 -19 0 -24 -5 -24 -25z" style="fill: url('#gradient-9');"/>
    <path d="M4540 2785 c-11 -13 -77 -15 -486 -15 -309 0 -474 3 -474 10 0 17&#10;-47 11 -54 -6 -7 -19 10 -44 29 -44 7 0 18 7 25 15 11 13 77 15 480 15 407 0&#10;469 -2 474 -15 8 -23 53 -19 61 5 12 39 -30 65 -55 35z" style="fill: url('#gradient-10');"/>
    <path d="M1835 2763 l1340 -3 117 -117 c65 -65 118 -121 118 -125 0 -5 -655&#10;-8 -1455 -8 -1287 0 -1455 -2 -1455 -15 0 -13 171 -15 1478 -15 l1477 0 180&#10;-180 180 -180 634 0 c566 0 636 -2 652 -16 27 -24 61 -9 57 24 -4 32 -37 42&#10;-58 17 -11 -13 -86 -15 -644 -15 l-631 0 -175 175 -175 175 90 0 90 0 100&#10;-100 100 -100 690 0 691 0 22 -30 c26 -34 64 -40 100 -14 28 20 31 83 4 107&#10;-28 26 -77 22 -100 -8 l-20 -25 -684 0 -683 0 -100 100 -100 100 -115 0 -115&#10;0 -130 130 -130 130 -1345 -2 -1345 -3 1340 -2z" style="fill: url('#gradient-11');"/>
    <path d="M3740 2635 c0 -20 6 -27 29 -31 18 -4 58 -35 107 -85 l79 -79 778 0&#10;c689 0 780 -2 794 -15 8 -9 20 -14 26 -12 18 6 31 33 24 51 -7 17 -57 23 -57&#10;6 0 -7 -268 -10 -783 -10 l-782 0 -77 78 c-42 42 -78 86 -80 97 -2 13 -12 21&#10;-31 23 -23 3 -27 0 -27 -23z" style="fill: url('#gradient-12');"/>
    <path d="M4447 2643 c-4 -3 -7 -17 -7 -30 0 -18 5 -23 25 -23 14 0 25 5 25 10&#10;0 6 137 10 392 10 355 0 393 -2 410 -17 24 -22 53 -6 53 28 0 29 -43 40 -57&#10;15 -8 -14 -53 -16 -397 -16 -333 0 -390 2 -401 15 -13 16 -32 19 -43 8z" style="fill: url('#gradient-13');"/>
    <path d="M500 2205 c0 -13 174 -15 1508 -15 l1507 0 300 -300 300 -300 273 0&#10;273 0 23 -27 c44 -51 126 -23 126 44 0 26 -41 73 -64 73 -27 0 -65 -23 -71&#10;-42 -6 -17 -23 -18 -278 -18 l-272 0 -300 300 -300 300 -1512 0 c-1338 0&#10;-1513 -2 -1513 -15z" style="fill: url('#gradient-14');"/>
    <path d="M3967 1953 c-4 -3 -7 -10 -7 -15 0 -4 219 -8 488 -8 l488 0 72 -73&#10;c39 -40 72 -76 72 -80 0 -4 -172 -7 -382 -7 -335 0 -384 2 -399 16 -22 20 -59&#10;10 -59 -17 0 -25 27 -36 51 -21 13 9 133 12 416 12 l398 0 165 -165 165 -165&#10;83 0 c80 0 85 -1 112 -30 17 -19 38 -30 54 -30 34 0 76 41 76 75 0 61 -89 89&#10;-128 40 -18 -23 -27 -25 -99 -25 l-78 0 -150 150 -150 150 109 0 c86 0 113 -3&#10;127 -16 14 -12 22 -13 38 -4 22 11 25 19 15 44 -8 20 -48 21 -64 1 -10 -12&#10;-37 -15 -124 -15 l-111 0 -95 95 -95 95 -491 0 c-270 0 -494 -3 -497 -7z" style="fill: url('#gradient-15');"/>
  </g>
  <path style="fill: rgb(216, 216, 216); stroke: rgb(0, 0, 0); fill-opacity: 0; stroke-width: 10px;" d="M 141.426 119.546 L 143.387 200.982 L 208.098 272.944 L 208.018 626.341" transform="matrix(1, 0, 0, 1, 0, 7.105427357601002e-15)"/>
  <path style="fill: rgb(216, 216, 216); stroke: rgb(0, 0, 0); fill-opacity: 0; stroke-width: 10px;" d="M 160.416 45.183 L 159.735 187.611 M 130.908 17.526 C 130.908 20.288 128.668 22.527 125.908 22.527 C 123.147 22.527 120.908 20.288 120.908 17.526 C 120.908 14.766 123.147 12.527 125.908 12.527 C 128.668 12.527 130.908 14.766 130.908 17.526 Z M 458.771 43.821 L 458.772 189.506 M 495.553 7.077 L 494.194 47.835 L 438.337 104.505 L 439.699 220.567 M 383.845 28.294 L 385.207 219.129 L 362.045 244.89 M 366.131 56.702 L 366.814 163.749 M 349.783 142.919 L 349.782 271.937 M 268.044 28.898 L 266.681 100.638 L 287.115 122.535 L 285.753 207.538 M 269.406 142.843 L 269.406 272.158 M 235.346 27.686 L 234.663 224.963 L 259.186 245.495 M 125.678 11.773 L 125.678 47.835 L 180.17 104.505 L 180.17 219.129 M 253.738 54.229 L 253.057 163.898 M 333.435 207.494 L 333.435 118.26 L 351.146 100.549 L 351.827 31.75 M 147.025 126.432 C 147.025 129.194 144.785 131.433 142.025 131.433 C 139.264 131.433 137.025 129.194 137.025 126.432 C 137.025 123.672 139.264 121.433 142.025 121.433 C 144.785 121.433 147.025 123.672 147.025 126.432 Z M 221.954 58.315 C 221.954 61.077 219.714 63.316 216.954 63.316 C 214.193 63.316 211.954 61.077 211.954 58.315 C 211.954 55.555 214.193 53.316 216.954 53.316 C 219.714 53.316 221.954 55.555 221.954 58.315 Z M 482.163 126.433 C 482.163 129.195 479.923 131.434 477.163 131.434 C 474.402 131.434 472.163 129.195 472.163 126.433 C 472.163 123.673 474.402 121.434 477.163 121.434 C 479.923 121.434 482.163 123.673 482.163 126.433 Z M 500.555 15.402 C 500.555 18.164 498.315 20.403 495.555 20.403 C 492.794 20.403 490.555 18.164 490.555 15.402 C 490.555 12.642 492.794 10.403 495.555 10.403 C 498.315 10.403 500.555 12.642 500.555 15.402 Z M 407.234 58.996 C 407.234 61.758 404.994 63.997 402.234 63.997 C 399.473 63.997 397.234 61.758 397.234 58.996 C 397.234 56.236 399.473 53.997 402.234 53.997 C 404.994 53.997 407.234 56.236 407.234 58.996 Z" transform="matrix(1, 0, 0, 1, 0, 7.105427357601002e-15)"/>
  <path style="fill: rgb(216, 216, 216); stroke: rgb(0, 0, 0); fill-opacity: 0; stroke-width: 10px;" d="M 477.846 118.521 L 477.846 201.099 L 409.728 273.223 L 410.409 625.66" transform="matrix(1, 0, 0, 1, 0, 7.105427357601002e-15)"/>
  <path style="fill: rgb(216, 216, 216); stroke: rgb(0, 0, 0); fill-opacity: 0; stroke-width: 10px;" d="M 419.944 76.257 L 419.262 242.313 L 349.783 315.724 L 348.42 617.102" transform="matrix(1, 0, 0, 1, 0, 7.105427357601002e-15)"/>
  <path style="fill: rgb(216, 216, 216); stroke: rgb(0, 0, 0); fill-opacity: 0; stroke-width: 10px;" d="M 321.175 42.46 L 321.854 607.143" transform="matrix(1, 0, 0, 1, 0, 7.105427357601002e-15)"/>
  <path style="fill: rgb(216, 216, 216); stroke: rgb(0, 0, 0); fill-opacity: 0; stroke-width: 10px;" d="M 298.016 85.569 L 295.288 609.375" transform="matrix(1, 0, 0, 1, 0, 7.105427357601002e-15)"/>
  <path style="fill: rgb(216, 216, 216); stroke: rgb(0, 0, 0); fill-opacity: 0; stroke-width: 10px;" d="M 199.243 76.628 L 197.883 237.31 L 270.086 313.3 L 268.723 618.54" transform="matrix(1, 0, 0, 1, 0, 7.105427357601002e-15)"/>
  <path style="fill: rgb(216, 216, 216); stroke: rgb(0, 0, 0); fill-opacity: 0; stroke-width: 10px;" d="M 218.998 50.066 L 218.317 230.612 L 239.593 252.456 L 238.071 626.34" transform="matrix(1, 0, 0, 1, 0, 7.105427357601002e-15)"/>
  <path style="fill: rgb(216, 216, 216); stroke: rgb(0, 0, 0); fill-opacity: 0; stroke-width: 10px;" d="M 401.553 50.748 L 401.552 231.941 L 378.392 256.387 L 379.753 625.66" transform="matrix(1, 0, 0, 1, 0, 7.105427357601002e-15)"/>
</svg>