<?xml version="1.0" encoding="utf-8"?>
<svg viewBox="0 0 500 500" xmlns:xlink="http://www.w3.org/1999/xlink">
  <defs>
    <linearGradient gradientUnits="userSpaceOnUse" x1="133.652" y1="86.068" x2="133.652" y2="140.961" id="gradient-0" gradientTransform="matrix(0.268368, 1.083134, -2.20357, 0.575019, 347.254303, -47.413823)">
      <stop offset="0" style="stop-color: rgb(255, 233, 0);"/>
      <stop offset="1" style="stop-color: rgb(216, 176, 3);"/>
    </linearGradient>
  </defs>
  <path style="stroke-width: 3px; stroke: url('#gradient-0'); paint-order: fill; fill: rgb(17, 17, 17);" d="M 315.683 124.612 L 237.06 124.612 L 195.475 124.612 L 179.771 147.009 L 105.427 148.008 L 88.296 167.623 L 64.604 168.223 L 51.499 188.962 L 93.784 188.406 L 110.246 173.568 L 252.238 171.789 M 115.833 105.495 C 115.833 107.655 114.127 109.407 112.021 109.407 C 109.916 109.407 108.209 107.655 108.209 105.495 C 108.209 103.334 109.916 101.583 112.021 101.583 C 114.127 101.583 115.833 103.334 115.833 105.495 Z M 165.28 62.7 C 165.28 64.861 163.574 66.612 161.468 66.612 C 159.363 66.612 157.656 64.861 157.656 62.7 C 157.656 60.539 159.363 58.788 161.468 58.788 C 163.574 58.788 165.28 60.539 165.28 62.7 Z M 147.406 62.217 C 147.406 64.378 145.7 66.129 143.594 66.129 C 141.489 66.129 139.782 64.378 139.782 62.217 C 139.782 60.056 141.489 58.305 143.594 58.305 C 145.7 58.305 147.406 60.056 147.406 62.217 Z M 323.15 52.918 C 323.15 55.078 321.444 56.83 319.338 56.83 C 317.233 56.83 315.526 55.078 315.526 52.918 C 315.526 50.757 317.233 49.006 319.338 49.006 C 321.444 49.006 323.15 50.757 323.15 52.918 Z M 302.299 69.424 C 302.299 71.584 300.593 73.336 298.487 73.336 C 296.382 73.336 294.675 71.584 294.675 69.424 C 294.675 67.263 296.382 65.512 298.487 65.512 C 300.593 65.512 302.299 67.263 302.299 69.424 Z M 308.257 206.374 C 308.257 208.534 306.551 210.286 304.445 210.286 C 302.34 210.286 300.633 208.534 300.633 206.374 C 300.633 204.213 302.34 202.462 304.445 202.462 C 306.551 202.462 308.257 204.213 308.257 206.374 Z M 285.619 148.292 C 285.619 150.452 283.913 152.204 281.807 152.204 C 279.702 152.204 277.995 150.452 277.995 148.292 C 277.995 146.131 279.702 144.38 281.807 144.38 C 283.913 144.38 285.619 146.131 285.619 148.292 Z M 273.703 103.662 C 273.703 105.822 271.997 107.574 269.891 107.574 C 267.786 107.574 266.079 105.822 266.079 103.662 C 266.079 101.501 267.786 99.75 269.891 99.75 C 271.997 99.75 273.703 101.501 273.703 103.662 Z M 362.468 309.084 C 362.468 311.245 360.762 312.996 358.656 312.996 C 356.551 312.996 354.844 311.245 354.844 309.084 C 354.844 306.923 356.551 305.172 358.656 305.172 C 360.762 305.172 362.468 306.923 362.468 309.084 Z M 323.15 123.838 C 323.15 125.999 321.444 127.75 319.338 127.75 C 317.233 127.75 315.526 125.999 315.526 123.838 C 315.526 121.677 317.233 119.926 319.338 119.926 C 321.444 119.926 323.15 121.677 323.15 123.838 Z M 334.469 187.42 C 334.469 189.581 332.763 191.332 330.657 191.332 C 328.552 191.332 326.845 189.581 326.845 187.42 C 326.845 185.259 328.552 183.508 330.657 183.508 C 332.763 183.508 334.469 185.259 334.469 187.42 Z M 257.342 172.202 C 257.342 174.362 255.636 176.114 253.53 176.114 C 251.425 176.114 249.718 174.362 249.718 172.202 C 249.718 170.041 251.425 168.29 253.53 168.29 C 255.636 168.29 257.342 170.041 257.342 172.202 Z M 324.939 251.615 C 324.939 253.775 323.233 255.527 321.127 255.527 C 319.022 255.527 317.315 253.775 317.315 251.615 C 317.315 249.454 319.022 247.703 321.127 247.703 C 323.233 247.703 324.939 249.454 324.939 251.615 Z M 342.809 324.368 C 342.809 326.529 341.103 328.28 338.997 328.28 C 336.892 328.28 335.185 326.529 335.185 324.368 C 335.185 322.207 336.892 320.456 338.997 320.456 C 341.103 320.456 342.809 322.207 342.809 324.368 Z M 317.192 374.502 C 317.192 376.663 315.486 378.414 313.38 378.414 C 311.275 378.414 309.568 376.663 309.568 374.502 C 309.568 372.341 311.275 370.59 313.38 370.59 C 315.486 370.59 317.192 372.341 317.192 374.502 Z M 134.897 406.904 C 134.897 409.065 133.191 410.816 131.085 410.816 C 128.98 410.816 127.273 409.065 127.273 406.904 C 127.273 404.743 128.98 402.992 131.085 402.992 C 133.191 402.992 134.897 404.743 134.897 406.904 Z M 224.257 348.824 C 224.257 350.984 222.551 352.736 220.445 352.736 C 218.34 352.736 216.633 350.984 216.633 348.824 C 216.633 346.663 218.34 344.912 220.445 344.912 C 222.551 344.912 224.257 346.663 224.257 348.824 Z M 245.011 281.831 C 245.011 283.992 243.305 285.743 241.199 285.743 C 239.094 285.743 237.387 283.992 237.387 281.831 C 237.387 279.67 239.094 277.919 241.199 277.919 C 243.305 277.919 245.011 279.67 245.011 281.831 Z M 127.991 280.736 C 127.991 282.896 126.285 284.648 124.179 284.648 C 122.074 284.648 120.367 282.896 120.367 280.736 C 120.367 278.575 122.074 276.824 124.179 276.824 C 126.285 276.824 127.991 278.575 127.991 280.736 Z M 248.683 354.632 C 248.683 356.793 246.977 358.544 244.871 358.544 C 242.766 358.544 241.059 356.793 241.059 354.632 C 241.059 352.471 242.766 350.72 244.871 350.72 C 246.977 350.72 248.683 352.471 248.683 354.632 Z M 250.215 339.025 C 250.215 341.185 248.509 342.937 246.403 342.937 C 244.298 342.937 242.591 341.185 242.591 339.025 C 242.591 336.864 244.298 335.113 246.403 335.113 C 248.509 335.113 250.215 336.864 250.215 339.025 Z M 220.087 391.01 C 220.087 393.17 218.381 394.922 216.275 394.922 C 214.17 394.922 212.463 393.17 212.463 391.01 C 212.463 388.849 214.17 387.098 216.275 387.098 C 218.381 387.098 220.087 388.849 220.087 391.01 Z M 307.064 426.47 C 307.064 428.63 305.358 430.382 303.252 430.382 C 301.147 430.382 299.44 428.63 299.44 426.47 C 299.44 424.309 301.147 422.558 303.252 422.558 C 305.358 422.558 307.064 424.309 307.064 426.47 Z M 270.724 442.976 C 270.724 445.137 269.018 446.888 266.912 446.888 C 264.807 446.888 263.1 445.137 263.1 442.976 C 263.1 440.815 264.807 439.064 266.912 439.064 C 269.018 439.064 270.724 440.815 270.724 442.976 Z M 130.13 422.188 C 130.13 424.349 128.424 426.1 126.318 426.1 C 124.213 426.1 122.506 424.349 122.506 422.188 C 122.506 420.027 124.213 418.276 126.318 418.276 C 128.424 418.276 130.13 420.027 130.13 422.188 Z M 430.467 91.605 C 430.467 119.381 408.527 141.898 381.462 141.898 C 354.398 141.898 332.457 119.381 332.457 91.605 C 332.457 63.829 354.398 41.312 381.462 41.312 C 408.527 41.312 430.467 63.829 430.467 91.605 Z M 421.531 404.019 C 421.531 431.795 399.591 454.312 372.526 454.312 C 345.462 454.312 323.521 431.795 323.521 404.019 C 323.521 376.243 345.462 353.726 372.526 353.726 C 399.591 353.726 421.531 376.243 421.531 404.019 Z M 185.296 172.136 L 203.765 149.515 L 278.232 148.904 M 17.435 211.81 L 105.467 210.654 L 115.595 199.036 L 154.319 198.425 L 162.659 188.642 L 327.082 188.031 M 126.914 282.249 L 143.594 306.703 L 216.275 306.703 L 240.105 284.082 M 17.484 250.938 L 97.723 250.391 L 120.361 266.288 L 212.104 266.9 L 225.211 252.227 L 317.551 251.614 M 247.254 357.384 L 261.552 375.113 L 309.807 375.113 M 249.04 337.82 L 265.721 324.98 L 334.827 324.368 M 52.447 275.458 L 91.766 275.459 L 113.213 304.805 L 131.084 329.26 L 229.381 328.648 L 251.424 309.085 L 355.082 309.085 M 137.042 371.444 L 230.572 372.057 L 253.807 402.626 L 325.295 403.848 M 165.637 63.31 L 218.658 63.31 L 227.594 52.917 L 314.572 52.917 M 143.595 78.594 L 237.127 77.983 L 246.062 69.424 L 293.721 70.035 M 128.701 422.188 L 215.084 422.801 L 226.998 442.364 L 262.742 442.976 M 133.467 406.905 L 235.934 407.517 L 248.445 426.47 L 299.678 426.47 M 64.957 361.051 L 65.98 382.937 L 114.404 382.45 L 115 411.184 M 52.446 117.723 L 74.815 93.045 L 142.999 91.435 L 143.594 65.143 M 115.595 105.495 L 161.468 105.494 L 169.807 90.822 L 332.737 91.369 M 54.79 310.371 L 94.912 309.934 L 97.021 348.449 L 158.489 348.717 L 218.097 348.732 M 118.58 414.471 C 118.58 416.631 116.874 418.383 114.768 418.383 C 112.663 418.383 110.956 416.631 110.956 414.471 C 110.956 412.31 112.663 410.559 114.768 410.559 C 116.874 410.559 118.58 412.31 118.58 414.471 Z M 49.943 148.637 L 76.798 147.861 L 94.075 126.576 L 170.906 124.632 L 188.073 102.791 C 188.073 102.791 266.966 102.792 266.316 103.459 M 57.017 329.331 L 79.603 328.932 L 80.565 365.67 L 135.534 366.168 C 135.522 366.164 136.065 390.623 136.065 390.623 L 212.105 391.01 M 5.44 224.556 L 117.405 223.563 L 127.464 214.646 L 168.329 214.646 L 177.131 206.173 L 226.8 206.62 L 300.953 206.32 M 453.943 227.203 C 453.943 254.979 432.003 277.496 404.938 277.496 C 377.874 277.496 355.933 254.979 355.933 227.203 C 355.933 199.427 377.874 176.91 404.938 176.91 C 432.003 176.91 453.943 199.427 453.943 227.203 Z M 5.703 235.469 L 113.285 234.967 L 127.037 245.004 L 197.765 245.507 L 213.17 228.563 L 244.14 228.314 L 356.13 227.704"/>
  <text style="fill: rgb(255, 205, 2); font-family: 'vazir', sans-serif; font-size: 22px; line-height: 40.7705px; text-anchor: middle; white-space: pre;" transform="matrix(0.828565, 0, 0, 0.824125, 101.03364, 16.261845)" x="337.254" y="102.024">1</text>
  <text style="fill: rgb(255, 205, 2); font-family: 'vazir', sans-serif; font-size: 21.9231px; line-height: 35.0769px; white-space: pre; text-anchor: middle;" transform="matrix(0.849523, 0, 0, 0.912281, 93.787569, 18.594729)" x="365.153" y="237.144">2</text>
  <text style="fill: rgb(255, 205, 2); font-family: 'vazir', sans-serif; font-size: 16px; line-height: 39.0425px; text-anchor: middle; white-space: pre;" transform="matrix(0.991028, 0, 0, 1.108127, 55.653855, -49.714467)" x="319.202" y="415.481">3</text>
</svg>