<?xml version="1.0" encoding="utf-8"?>
<svg viewBox="0 0 500 500" xmlns="http://www.w3.org/2000/svg">
  <defs>
    <linearGradient gradientUnits="userSpaceOnUse" x1="248.625" y1="63.73" x2="248.625" y2="410.339" id="gradient-0" gradientTransform="matrix(-0.020837, 0.999783, -0.56029, -0.011677, 386.347361, 63.277828)">
      <stop offset="0" style="stop-color: rgb(216, 176, 3);"/>
      <stop offset="0.538" style="stop-color: rgb(255, 233, 0);"/>
      <stop offset="1" style="stop-color: rgb(216, 176, 3);"/>
    </linearGradient>
  </defs>
  <path d="M 249.997 68.217 L 407.031 414.543 L 248.626 214.826 L 87.508 414.511 L 249.997 68.217 Z M 87.261 414.826 L 87.363 414.826 L 87.508 414.511 L 87.261 414.826 Z M 407.261 414.826 L 407.031 414.543 L 407.161 414.826 L 407.261 414.826 Z M 249.68 145.351 L 407.815 414.804 L 407.799 414.804 L 248.451 214.935 L 88.009 414.804 L 87.815 414.804 L 249.68 145.351 Z M 248.639 215.92 L 250.281 70.406 M 214.996 143.163 L 213.355 206.62 M 222.108 127.845 L 221.561 192.944 M 229.766 111.981 L 228.672 180.909 M 236.604 96.117 L 235.51 167.78 M 243.169 81.894 L 242.622 155.198 M 110.237 364.717 L 109.69 376.752 M 117.348 350.493 L 117.348 364.716 M 123.912 336.818 L 123.912 354.323 M 131.025 321.5 L 131.025 341.741 M 138.136 305.636 L 138.683 329.159 M 145.795 288.13 L 146.342 317.123 M 154 272.266 L 154 303.995 M 161.112 256.402 L 161.112 293.054 M 168.771 239.443 L 168.224 281.019 M 176.429 224.673 L 175.882 267.889 M 183.541 209.902 L 183.541 255.854 M 191.747 191.303 L 191.747 241.084 M 199.406 175.439 L 198.859 230.143 M 207.063 158.481 L 205.969 218.655 M 378.837 365.264 L 379.384 378.94 M 371.725 353.229 L 371.178 368.546 M 365.16 341.194 L 364.066 359.793 M 357.501 328.612 L 356.407 351.04 M 349.843 314.389 L 348.749 340.1 M 341.637 301.807 L 339.996 329.159 M 334.526 287.584 L 332.885 319.312 M 325.772 275.002 L 324.131 308.918 M 317.02 258.863 L 315.379 297.703 M 309.361 245.46 L 307.72 289.223 M 300.609 231.237 L 298.968 278.283 M 292.403 218.655 L 290.762 267.889 M 282.556 201.151 L 282.009 255.308 M 274.351 186.927 L 272.71 245.461 M 266.692 173.798 L 265.051 235.614 M 257.392 157.933 L 256.845 225.22" style="stroke-width: 3px; stroke: url('#gradient-0'); fill: rgb(17, 17, 17);"/>
</svg>